<svg width="44" height="45" viewBox="0 0 44 45" fill="none" xmlns="http://www.w3.org/2000/svg">
<g clip-path="url(#clip0_4_92)">
<path d="M33.5138 11.2559L23.8084 9.54452C22.1752 9.25659 20.6122 10.351 20.3242 11.9843L20.0933 13.2933C19.9784 13.3103 19.8637 13.3333 19.7498 13.3638L10.2305 15.9145C9.45452 16.1224 8.8059 16.6201 8.40424 17.3158C8.00257 18.0116 7.89583 18.8222 8.1038 19.5982L12.3024 35.2679C12.5103 36.0439 13.008 36.6925 13.7038 37.0942C14.1672 37.3618 14.6815 37.4984 15.2027 37.4984C15.4639 37.4984 15.727 37.4641 15.9861 37.3946L25.5054 34.8439C26.2813 34.636 26.93 34.1383 27.3316 33.4426C27.451 33.2359 27.5436 33.0189 27.6104 32.7958L29.6523 33.1559C29.8282 33.1869 30.0032 33.2019 30.176 33.2019C31.6074 33.2019 32.8796 32.1735 33.1366 30.7161L35.9535 14.7402C36.2415 13.1069 35.147 11.5439 33.5138 11.2559ZM26.0474 31.5849C26.1419 31.9376 26.0934 32.3061 25.9108 32.6223C25.7282 32.9386 25.4334 33.1648 25.0807 33.2593L15.5614 35.81C15.2087 35.9046 14.8403 35.8561 14.524 35.6734C14.2078 35.4908 13.9815 35.196 13.887 34.8433L9.68841 19.1736C9.59392 18.8209 9.64242 18.4524 9.82502 18.1361C10.0076 17.8199 10.3024 17.5937 10.6551 17.4992L20.1744 14.9484C20.2922 14.9169 20.4118 14.9012 20.5305 14.9012C20.7674 14.9012 21.0012 14.9634 21.2118 15.085C21.528 15.2676 21.7543 15.5624 21.8488 15.9151L26.0474 31.5849ZM24.4044 19.1144C24.4104 19.0675 24.4167 19.0207 24.4249 18.9742C24.5134 18.4722 24.9516 18.118 25.4447 18.118C25.5042 18.118 25.5645 18.1231 25.6251 18.1338C26.0067 18.2012 26.3166 18.4732 26.4335 18.8439C26.5255 19.1355 26.7721 19.3518 27.0733 19.4049C27.3746 19.458 27.6802 19.3391 27.8664 19.0966C28.1031 18.7883 28.4872 18.6386 28.8689 18.7059C29.1414 18.7539 29.3789 18.9052 29.5377 19.1319C29.6964 19.3586 29.7574 19.6335 29.7093 19.9061C29.3831 21.7564 27.2977 23.3309 26.2613 24.0102C26.0014 23.6621 25.658 23.1664 25.3357 22.59L24.4044 19.1144ZM34.3379 14.4553L31.5209 30.4313C31.39 31.1737 30.6795 31.671 29.9371 31.5403L27.6246 31.1326L26.2212 25.895C26.3044 25.8795 26.3863 25.851 26.4638 25.8087C26.6387 25.7134 30.7526 23.4368 31.3249 20.1909C31.5812 18.7375 30.6072 17.3465 29.1538 17.0902C28.5535 16.9844 27.9509 17.0859 27.4337 17.3611C27.0417 16.9256 26.5103 16.6241 25.9099 16.5182C25.206 16.394 24.4956 16.5515 23.9099 16.9616C23.8865 16.978 23.8639 16.9953 23.8411 17.0123L23.4334 15.4905C23.2255 14.7145 22.7278 14.0659 22.032 13.6642C21.9308 13.6058 21.8268 13.5543 21.7212 13.5084L21.9397 12.2691C22.0706 11.5268 22.7812 11.0293 23.5235 11.1602L33.2288 12.8715C33.9713 13.0024 34.4688 13.7129 34.3379 14.4553Z" fill="#6F6E7C"/>
</g>
<defs>
<clipPath id="clip0_4_92">
<rect width="27.9996" height="28" fill="white" transform="translate(8 9.5)"/>
</clipPath>
</defs>
</svg>
