<svg width="44" height="45" viewBox="0 0 44 45" fill="none" xmlns="http://www.w3.org/2000/svg">
<g clip-path="url(#clip0_4_92)">
<path d="M33.5138 12.7559L23.8084 11.0445C22.1752 10.7566 20.6122 11.851 20.3242 13.4843L20.0933 14.7933C19.9784 14.8103 19.8637 14.8333 19.7498 14.8638L10.2305 17.4145C9.45452 17.6224 8.8059 18.1201 8.40424 18.8158C8.00257 19.5116 7.89583 20.3222 8.1038 21.0982L12.3024 36.7679C12.5103 37.5439 13.008 38.1925 13.7038 38.5942C14.1672 38.8618 14.6815 38.9984 15.2027 38.9984C15.4639 38.9984 15.727 38.9641 15.9861 38.8946L25.5054 36.3439C26.2813 36.136 26.93 35.6383 27.3316 34.9426C27.451 34.7359 27.5436 34.5189 27.6104 34.2958L29.6523 34.6559C29.8282 34.6869 30.0032 34.7019 30.176 34.7019C31.6074 34.7019 32.8796 33.6735 33.1366 32.2161L35.9535 16.2402C36.2415 14.6069 35.147 13.0439 33.5138 12.7559ZM26.0474 33.0849C26.1419 33.4376 26.0934 33.8061 25.9108 34.1223C25.7282 34.4386 25.4334 34.6648 25.0807 34.7593L15.5614 37.31C15.2087 37.4046 14.8403 37.3561 14.524 37.1734C14.2078 36.9908 13.9815 36.696 13.887 36.3433L9.68841 20.6736C9.59392 20.3209 9.64242 19.9524 9.82502 19.6361C10.0076 19.3199 10.3024 19.0937 10.6551 18.9992L20.1744 16.4484C20.2922 16.4169 20.4118 16.4012 20.5305 16.4012C20.7674 16.4012 21.0012 16.4634 21.2118 16.585C21.528 16.7676 21.7543 17.0624 21.8488 17.4151L26.0474 33.0849ZM24.4044 20.6144C24.4104 20.5675 24.4167 20.5207 24.4249 20.4742C24.5134 19.9722 24.9516 19.618 25.4447 19.618C25.5042 19.618 25.5645 19.6231 25.6251 19.6338C26.0067 19.7012 26.3166 19.9732 26.4335 20.3439C26.5255 20.6355 26.7721 20.8518 27.0733 20.9049C27.3746 20.958 27.6802 20.8391 27.8664 20.5966C28.1031 20.2883 28.4872 20.1386 28.8689 20.2059C29.1414 20.2539 29.3789 20.4052 29.5377 20.6319C29.6964 20.8586 29.7574 21.1335 29.7093 21.4061C29.3831 23.2564 27.2977 24.8309 26.2613 25.5102C26.0014 25.1621 25.658 24.6664 25.3357 24.09L24.4044 20.6144ZM34.3379 15.9553L31.5209 31.9313C31.39 32.6737 30.6795 33.171 29.9371 33.0403L27.6246 32.6326L26.2212 27.395C26.3044 27.3795 26.3863 27.351 26.4638 27.3087C26.6387 27.2134 30.7526 24.9368 31.3249 21.6909C31.5812 20.2375 30.6072 18.8465 29.1538 18.5902C28.5535 18.4844 27.9509 18.5859 27.4337 18.8611C27.0417 18.4256 26.5103 18.1241 25.9099 18.0182C25.206 17.894 24.4956 18.0515 23.9099 18.4616C23.8865 18.478 23.8639 18.4953 23.8411 18.5123L23.4334 16.9905C23.2255 16.2145 22.7278 15.5659 22.032 15.1642C21.9308 15.1058 21.8268 15.0543 21.7212 15.0084L21.9397 13.7691C22.0706 13.0268 22.7812 12.5293 23.5235 12.6602L33.2288 14.3715C33.9713 14.5024 34.4688 15.2129 34.3379 15.9553Z" fill="#6F6E7C"/>
</g>
<defs>
<clipPath id="clip0_4_92">
<rect width="27.9996" height="28" fill="white" transform="translate(8 11)"/>
</clipPath>
</defs>
</svg>
